<?xml version="1.0" encoding="UTF-8" standalone="no"?>
<svg
   xmlns:dc="http://purl.org/dc/elements/1.1/"
   xmlns:cc="http://creativecommons.org/ns#"
   xmlns:rdf="http://www.w3.org/1999/02/22-rdf-syntax-ns#"
   xmlns:svg="http://www.w3.org/2000/svg"
   xmlns="http://www.w3.org/2000/svg"
   xmlns:sodipodi="http://sodipodi.sourceforge.net/DTD/sodipodi-0.dtd"
   xmlns:inkscape="http://www.inkscape.org/namespaces/inkscape"
   style="fill-rule:evenodd"
   xml:space="preserve"
   version="1.1"
   clip-rule="evenodd"
   viewBox="0 0 9066 9066"
   id="svg2"
   inkscape:version="0.48.4 r9939"
   width="100%"
   height="100%"
   sodipodi:docname="plushu_saru.svg"
   inkscape:export-filename="/home/stuart/Downloads/plushu_saru_1024.png"
   inkscape:export-xdpi="10.165453"
   inkscape:export-ydpi="10.165453"><sodipodi:namedview
     pagecolor="#ffffff"
     bordercolor="#666666"
     borderopacity="1"
     objecttolerance="10"
     gridtolerance="10"
     guidetolerance="10"
     inkscape:pageopacity="0"
     inkscape:pageshadow="2"
     inkscape:window-width="1680"
     inkscape:window-height="984"
     id="namedview144"
     showgrid="false"
     inkscape:object-paths="true"
     inkscape:snap-intersection-paths="false"
     inkscape:snap-bbox="false"
     inkscape:bbox-paths="false"
     inkscape:object-nodes="true"
     inkscape:snap-smooth-nodes="true"
     inkscape:snap-page="true"
     fit-margin-top="0"
     fit-margin-left="0"
     fit-margin-right="0"
     fit-margin-bottom="0"
     inkscape:zoom="0.0625"
     inkscape:cx="3083.8542"
     inkscape:cy="4264.0196"
     inkscape:window-x="0"
     inkscape:window-y="27"
     inkscape:window-maximized="1"
     inkscape:current-layer="svg2" /><defs
     id="defs4"><style
       type="text/css"
       id="style6">
    .fil17 {fill:none}
    .fil29 {fill:#1A1A1A}
    .fil19 {fill:#4A1F10}
    .fil42 {fill:#4F2010}
    .fil40 {fill:#5E3220}
    .fil21 {fill:#612815}
    .fil39 {fill:#6B3722}
    .fil27 {fill:#6E341C}
    .fil30 {fill:#7A7B9C}
    .fil38 {fill:#8A3E20}
    .fil24 {fill:#8C4629}
    .fil18 {fill:#8F4424}
    .fil23 {fill:#9A4A29}
    .fil22 {fill:#9C4D2B}
    .fil37 {fill:#9E4826}
    .fil20 {fill:#A1502D}
    .fil4 {fill:#AD502B}
    .fil35 {fill:#B0B04A}
    .fil6 {fill:#BB5932}
    .fil25 {fill:#BC7E4D}
    .fil5 {fill:#C9C963}
    .fil3 {fill:#CFA68B}
    .fil34 {fill:#D1D171}
    .fil33 {fill:#D9D973}
    .fil13 {fill:#DBDB7D}
    .fil26 {fill:#E09C7F}
    .fil16 {fill:#E0E07B}
    .fil11 {fill:#E1E170}
    .fil2 {fill:#E2C8B7}
    .fil12 {fill:#E6E67A}
    .fil9 {fill:#EBA78A}
    .fil41 {fill:#EBDFDF}
    .fil10 {fill:#EDED7C}
    .fil0 {fill:#EDEDED}
    .fil7 {fill:#FEB394}
    .fil1 {fill:white}
    .fil31 {fill:#473D3D;fill-rule:nonzero}
    .fil32 {fill:#824023;fill-rule:nonzero}
    .fil8 {fill:#B0532E;fill-rule:nonzero}
    .fil15 {fill:#C9C963;fill-rule:nonzero}
    .fil28 {fill:#CF9278;fill-rule:nonzero}
    .fil36 {fill:#D1D171;fill-rule:nonzero}
    .fil43 {fill:#E6A183;fill-rule:nonzero}
    .fil14 {fill:#E6E67A;fill-rule:nonzero}
  </style></defs><polygon
     style="fill:#e2c8b7"
     id="polygon13"
     class="fil2"
     points="8681,1950 8681,9204 1427,9204 1427,1950 "
     transform="translate(-521,-1044)" /><path
     style="fill:#cfa68b"
     inkscape:connector-curvature="0"
     id="path15"
     d="m 6971,5414 c 20,71 8,121 -42,194 -5,40 18,75 68,104 562,424 701,657 701,657 90,99 129,161 122,181 3,19 -27,10 -88,-28 -37,-23 -68,-41 -98,-55 101,157 214,416 309,696 40,12 83,25 128,41 43,24 85,48 125,72 -6,11 -9,23 -9,36 0,34 21,63 51,75 l 3,16 c 1,10 5,20 10,29 l 17,26 6,12 c 4,7 7,15 12,22 l 17,23 c 4,5 9,11 13,16 4,4 7,9 11,13 l 13,15 28,36 c 7,9 15,15 24,22 -1,-1 3,3 3,4 4,4 7,7 10,11 1,2 2,4 3,5 2,3 4,6 6,8 3,5 7,10 11,14 l 4,4 c 7,8 14,15 23,21 2,7 5,14 10,21 l 14,24 c 5,16 15,29 27,39 v 112 c -2,1 -5,1 -7,3 -12,3 -23,10 -32,19 l 2,-2 c -4,3 -8,6 -11,9 -9,6 -16,14 -22,22 -2,2 -3,3 -4,5 -7,5 -13,11 -17,18 -4,4 -7,8 -9,12 -3,5 -6,9 -9,14 -2,5 -5,10 -7,15 -4,5 -7,10 -9,15 -9,3 -17,7 -24,12 -6,2 -11,5 -15,9 -26,15 -40,42 -39,70 v 18 c 0,13 3,26 9,37 0,2 1,3 2,4 h -928 c -88,-132 -151,-274 -184,-409 -24,-27 -48,-55 -72,-83 50,159 69,326 55,492 H 2854 c -10,-114 -4,-229 17,-341 -15,-35 -24,-71 -25,-109 -89,23 -176,45 -262,60 -21,4 -42,8 -63,13 l 11,-33 c 2,-9 4,-17 4,-26 v -6 l 16,-33 c 4,-8 7,-16 8,-25 l 9,-59 c 4,-31 -10,-61 -35,-78 -2,-12 -8,-23 -15,-33 v -26 c 0,-21 -8,-41 -24,-57 -31,-32 -82,-32 -114,0 l -16,17 c -4,3 -7,7 -10,11 -8,-9 -18,-16 -29,-21 v -9 c 0,-24 -11,-46 -27,-60 -9,-36 -41,-62 -79,-62 -44,0 -81,36 -81,80 v 10 l -33,72 -5,-4 c -15,-15 -35,-24 -57,-24 -45,0 -81,36 -81,81 v 25 c -9,-3 -18,-5 -28,-5 -34,0 -62,20 -75,49 -3,3 -6,6 -8,10 -45,-5 -85,27 -90,72 -4,-2 -8,-3 -13,-4 -5,-8 -12,-14 -19,-20 v -27 c 0,-44 -36,-80 -81,-80 -44,0 -80,36 -80,80 v 173 c -27,14 -43,43 -42,72 v 17 c -11,13 -17,30 -17,49 v 15 c -14,-12 -33,-20 -54,-20 -27,0 -51,13 -65,33 -35,0 -66,22 -78,54 -8,13 -13,28 -13,44 v 26 c -31,-22 -75,-19 -102,9 -25,25 -30,61 -17,90 H 891 C 552,7842 719,7154 1502,7017 c 21,-3 41,-6 61,-9 185,-91 419,-189 701,-294 6,-33 -2,-10 8,-39 28,-144 59,-249 106,-305 22,-27 43,-52 65,-77 178,-199 357,-341 564,-394 1,-109 14,-195 37,-257 114,-306 316,-434 607,-384 -20,-33 -19,-71 -5,-109 18,-70 79,-127 147,-168 -141,-188 -232,-405 -264,-644 -9,-22 -17,-45 -24,-70 -31,7 79,10 -94,10 -174,0 -571,-347 -571,-776 0,-429 399,-776 571,-776 172,0 57,2 85,8 222,-737 832,-1285 1452,-1341 619,-55 1081,232 1444,711 29,-19 -78,16 93,-47 172,-62 684,130 835,543 151,413 -108,888 -286,954 -179,65 -98,26 -148,27 5,207 -14,408 -54,598 1,45 -1,90 -7,135 2,47 -1,96 -9,149 -27,134 -67,254 -121,360 52,32 79,77 72,150 60,52 77,124 51,216 17,16 71,39 107,113 21,45 37,81 46,113 z"
     class="fil3" /><path
     style="fill:#ad502b"
     inkscape:connector-curvature="0"
     id="path17"
     d="m 4729,6235 c 1234,0 2234,759 2234,1696 0,78 -7,154 -20,229 H 2516 c -13,-75 -20,-151 -20,-229 0,-937 1000,-1696 2233,-1696 z"
     class="fil4" /><path
     style="fill:#c9c963"
     inkscape:connector-curvature="0"
     id="path19"
     d="m 6418,6992 c -228,162 -230,340 -6,532 249,-80 397,-206 445,-377 -293,-103 -439,-155 -439,-155 z"
     class="fil5" /><path
     style="fill:#bb5932"
     inkscape:connector-curvature="0"
     id="path21"
     d="m 2968,6179 c -17,9 -35,19 -53,29 -806,251 -1400,473 -1782,665 l 23,1190 h 161 c 341,-233 647,-378 906,-424 238,-42 485,-130 751,-191 l -6,-1269 z"
     class="fil6" /><path
     style="fill:#feb394"
     inkscape:connector-curvature="0"
     id="path23"
     d="m 1417,7997 c 6,-58 229,-51 191,-112 163,-302 5,-613 -475,-1012 l 23,1190 261,-66 z"
     class="fil7" /><path
     style="fill:#bb5932"
     inkscape:connector-curvature="0"
     id="path25"
     d="m 7382,6237 c 259,339 625,1457 579,1923 H 7530 C 7082,7809 6478,7058 6309,6690 c 0,0 18,-178 75,-755 0,0 345,11 998,302 z"
     class="fil6" /><path
     style="fill:#b0532e;fill-rule:nonzero"
     inkscape:connector-curvature="0"
     id="path27"
     d="m 2467,6880 c 5,-1 10,2 11,9 2,6 -1,13 -6,14 -132,46 -257,101 -376,165 -118,64 -230,137 -335,219 -5,3 -10,1 -13,-4 -3,-6 -1,-14 3,-17 106,-82 219,-156 338,-220 119,-64 245,-120 378,-166 z"
     class="fil8" /><path
     style="fill:#b0532e;fill-rule:nonzero"
     inkscape:connector-curvature="0"
     id="path29"
     d="m 7510,6983 c 2,5 -2,10 -8,12 -6,1 -13,-2 -15,-7 -49,-130 -107,-254 -174,-370 -67,-117 -143,-227 -228,-330 -3,-4 -2,-10 4,-13 5,-3 13,-2 16,3 86,103 162,214 230,332 67,117 125,241 175,373 z"
     class="fil8" /><path
     style="fill:#eba78a"
     inkscape:connector-curvature="0"
     id="path31"
     d="m 1281,8160 c 919,-269 909,-1485 -172,-1296 -209,36 -375,111 -500,207 v 1062 c 19,10 40,19 62,27 h 610 z"
     class="fil9" /><path
     style="fill:#eded7c"
     inkscape:connector-curvature="0"
     id="path33"
     d="m 7490,6196 c 161,178 164,239 35,158 -175,-109 -236,-130 -498,8 -348,268 -473,537 -471,905 47,117 43,186 -15,208 -156,48 -310,166 -599,127 -522,-72 -1050,-93 -1582,-64 -539,-19 -948,49 -1228,206 -239,61 -419,78 -542,52 -100,-109 -123,-228 -71,-356 75,-247 96,-404 63,-471 -196,-233 -322,-343 -449,-433 -73,-62 -136,-31 -241,24 32,-173 65,-299 118,-363 206,-246 409,-423 649,-484 1,-113 13,-201 37,-265 118,-315 326,-447 626,-396 -53,-157 91,-269 222,-322 40,108 200,172 478,482 0,0 400,-250 1793,-235 296,-112 368,-142 548,-413 114,36 178,83 168,194 62,53 79,127 53,222 17,17 73,41 110,117 70,147 78,206 4,316 -6,41 18,77 70,107 579,436 722,676 722,676 z"
     class="fil10" /><path
     style="fill:#c9c963"
     inkscape:connector-curvature="0"
     id="path35"
     d="m 3692,7271 c 13,-323 154,-594 422,-816 -583,201 -1271,920 -1537,1176 383,-96 670,-549 1115,-360 z"
     class="fil5" /><path
     style="fill:#e1e170"
     inkscape:connector-curvature="0"
     id="path37"
     d="m 7490,6196 c 161,178 164,239 35,158 -175,-109 -236,-130 -498,8 -344,265 -470,531 -471,894 l -5,-7 c -220,-293 -367,-598 -441,-915 -59,-460 137,-767 588,-921 -6,41 18,77 70,107 579,436 722,676 722,676 z"
     class="fil11" /><path
     style="fill:#e6e67a"
     inkscape:connector-curvature="0"
     id="path39"
     d="m 2078,6119 c 183,-205 368,-352 581,-406 1,-113 13,-201 37,-265 118,-315 326,-447 626,-396 -53,-157 91,-269 222,-322 40,108 200,172 478,482 0,0 399,-249 1788,-235 C 4386,6691 3142,7072 2078,6119 z"
     class="fil12" /><path
     style="fill:#eded7c"
     inkscape:connector-curvature="0"
     id="path41"
     d="m 2659,5713 c 1,-113 13,-201 37,-265 118,-315 326,-447 626,-396 295,279 505,342 1997,431 l -14,33 c -1435,273 -1852,397 -2646,197 z"
     class="fil10" /><path
     style="fill:#dbdb7d"
     inkscape:connector-curvature="0"
     id="path43"
     d="m 3322,5052 c -67,-111 91,-269 222,-322 161,-52 200,172 478,482 0,0 399,-249 1788,-235 -164,197 -326,377 -485,539 -1112,173 -1780,18 -2003,-464 z"
     class="fil13" /><path
     style="fill:#e6e67a"
     inkscape:connector-curvature="0"
     id="path45"
     d="m 6148,5495 c 83,-80 158,-180 225,-300 31,-37 60,-48 86,-32 25,18 22,51 -9,99 -48,65 -451,670 -543,599 -37,-23 -43,-61 -17,-112 117,-141 187,-244 210,-308 23,-42 37,-46 44,-10 12,20 14,42 4,64 z"
     class="fil12" /><path
     style="fill:#c9c963"
     inkscape:connector-curvature="0"
     id="path47"
     d="m 6193,4494 c -560,285 -1232,603 -1376,1034 790,114 1421,-481 1602,-944 -151,-60 -226,-90 -226,-90 z"
     class="fil5" /><path
     style="fill:#e6e67a;fill-rule:nonzero"
     inkscape:connector-curvature="0"
     id="path49"
     d="m 5451,5688 c 6,-9 17,-11 24,-3 7,7 8,21 2,30 -70,111 -121,215 -153,314 -32,96 -44,219 -39,302 0,12 -7,22 -16,23 -9,1 -17,-8 -18,-19 -5,-91 8,-220 42,-323 33,-102 86,-210 158,-324 z"
     class="fil14" /><path
     style="fill:#c9c963;fill-rule:nonzero"
     inkscape:connector-curvature="0"
     id="path51"
     d="m 7489,6212 c 160,177 165,223 36,142 -175,-109 -241,-123 -502,14 -341,263 -466,523 -472,881 h -6 c -3,-31 -13,-69 -32,-114 -1,-369 124,-637 472,-906 258,-135 330,-120 504,-17 z"
     class="fil15" /><path
     style="fill:#c9c963"
     inkscape:connector-curvature="0"
     id="path53"
     d="m 2582,6969 c -185,-220 -335,-358 -449,-433 -73,-62 -136,-31 -241,24 9,-46 -2,-15 10,-51 356,-228 708,501 680,460 z"
     class="fil5" /><path
     style="fill:#e0e07b"
     inkscape:connector-curvature="0"
     id="path55"
     d="m 6541,7475 c -156,48 -310,166 -599,127 -522,-72 -1050,-93 -1582,-64 -539,-19 -948,49 -1228,206 -239,61 -419,78 -542,52 -40,-44 -67,-89 -83,-136 964,-417 2341,-512 4034,-185 z"
     class="fil16" /><path
     style="fill:none"
     inkscape:connector-curvature="0"
     id="path57"
     d="m 3492,4484 c 554,543 1129,793 1566,792"
     class="fil17" /><ellipse
     style="fill:#8f4424"
     sodipodi:ry="2028"
     sodipodi:rx="1624"
     sodipodi:cy="0"
     sodipodi:cx="0"
     cy="0"
     cx="0"
     id="ellipse59"
     class="fil18"
     ry="2028"
     rx="1624"
     transform="matrix(0.35561,-0.13031,0.13921,0.3799,6523.2,2525.2)" /><ellipse
     style="fill:#4a1f10"
     sodipodi:ry="2028"
     sodipodi:rx="1624"
     sodipodi:cy="0"
     sodipodi:cx="0"
     cy="0"
     cx="0"
     id="ellipse61"
     class="fil19"
     ry="2028"
     rx="1624"
     transform="matrix(0.11403,-0.091013,0.098535,0.23191,6442.8,2599.6)" /><path
     style="fill:#a1502d"
     inkscape:connector-curvature="0"
     id="path63"
     d="m 6241,1755 c 319,-117 704,133 860,559 86,237 84,478 10,665 -217,-561 -543,-951 -978,-1168 33,-23 69,-42 108,-56 z"
     class="fil20" /><ellipse
     style="fill:#8f4424"
     sodipodi:ry="800"
     sodipodi:rx="588"
     sodipodi:cy="4287"
     sodipodi:cx="3595"
     id="ellipse65"
     ry="800"
     class="fil18"
     rx="588"
     cx="3595"
     cy="4287"
     transform="translate(-521,-1044)" /><ellipse
     style="fill:#612815"
     sodipodi:ry="688"
     sodipodi:rx="416"
     sodipodi:cy="4328"
     sodipodi:cx="3859"
     id="ellipse67"
     ry="688"
     class="fil21"
     rx="416"
     cx="3859"
     cy="4328"
     transform="translate(-521,-1044)" /><path
     style="fill:#9c4d2b"
     inkscape:connector-curvature="0"
     id="path69"
     d="m 3074,2443 c 30,0 60,3 89,9 -255,294 -462,670 -621,1128 -36,-102 -55,-217 -55,-337 0,-442 263,-800 587,-800 z"
     class="fil22" /><path
     style="fill:#9a4a29"
     inkscape:connector-curvature="0"
     id="path71"
     d="m 4657,1071 c 989,-89 1878,837 1987,2068 31,355 -6,697 -98,1005 66,-332 -138,-703 -509,-881 -129,-62 -263,-94 -393,-98 -661,-96 -1327,-9 -1998,261 -123,36 -231,102 -315,188 l -133,494 c -18,-43 -32,-90 -43,-143 -45,-160 -77,-329 -92,-504 -108,-1231 605,-2302 1594,-2390 z"
     class="fil23" /><path
     style="fill:#8c4629"
     inkscape:connector-curvature="0"
     id="path73"
     d="M 5100,5521 C 3879,5633 2499,3739 3697,3381 c 58,-24 116,-46 175,-67 l -47,-30 c 15,11 31,21 47,30 569,-216 1174,-271 1815,-199 139,15 284,43 400,100 1190,582 66,2210 -987,2306 z"
     class="fil24" /><path
     style="fill:#bc7e4d"
     inkscape:connector-curvature="0"
     id="path75"
     d="M 4219,5337 C 3923,4258 3535,3802 3188,4022 c 45,590 433,1057 1031,1315 z"
     class="fil25" /><path
     style="fill:#9a4a29"
     inkscape:connector-curvature="0"
     id="path77"
     d="m 6537,3848 c -438,272 -612,677 -523,1214 300,-165 489,-442 568,-829 21,-159 6,-287 -45,-385 z"
     class="fil23" /><path
     style="fill:#eba78a"
     inkscape:connector-curvature="0"
     id="path79"
     d="M 5050,5530 C 3829,5639 2449,3778 3646,3426 c 59,-23 117,-46 175,-66 -211,-116 -367,-380 -367,-687 0,-372 219,-681 506,-739 32,-7 65,-10 99,-10 55,0 109,9 159,26 192,-11 424,-65 699,-163 78,-56 167,-92 265,-103 358,-36 685,294 731,737 31,305 -92,585 -278,742 3,1 6,1 9,2 130,4 264,36 393,98 1190,572 66,2172 -987,2267 z"
     class="fil9" /><path
     style="fill:#e09c7f"
     inkscape:connector-curvature="0"
     id="path81"
     d="m 5635,3163 c -640,-81 -1244,-15 -1814,197 l -47,-29 c -2,-2 -4,-3 -7,-5 622,-319 1257,-384 1905,-196 -12,11 -25,23 -37,33 z"
     class="fil26" /><path
     style="fill:#eba78a"
     inkscape:connector-curvature="0"
     id="path83"
     d="M 5050,5530 C 3829,5639 2449,3778 3646,3426 c 59,-23 117,-46 175,-66 l -47,-29 c 16,10 31,20 47,29 570,-212 1174,-278 1814,-197 127,32 250,60 367,84 11,5 23,10 35,16 1190,572 66,2172 -987,2267 z"
     class="fil9" /><ellipse
     style="fill:#6e341c"
     sodipodi:ry="255"
     sodipodi:rx="222"
     sodipodi:cy="3992"
     sodipodi:cx="4678"
     id="ellipse85"
     ry="255"
     class="fil27"
     rx="222"
     cx="4678"
     cy="3992"
     transform="translate(-521,-1044)" /><ellipse
     style="fill:#6e341c"
     sodipodi:ry="610"
     sodipodi:rx="532"
     sodipodi:cy="0"
     sodipodi:cx="0"
     cy="0"
     cx="0"
     id="ellipse87"
     class="fil27"
     ry="610"
     rx="532"
     transform="matrix(0.41693,-0.032393,0.032393,0.41693,5122.4,2736.7)" /><path
     style="fill:#cf9278;fill-rule:nonzero"
     inkscape:connector-curvature="0"
     id="path89"
     d="m 3872,4855 c 78,15 157,27 236,34 79,7 157,9 235,2 76,-7 152,-22 227,-48 74,-25 147,-62 218,-112 4,-3 9,-5 13,-6 5,0 10,0 14,2 h 1 c 111,36 223,57 338,62 114,5 230,-7 348,-34 119,-28 239,-72 362,-132 122,-60 246,-136 372,-229 5,-3 12,-2 15,2 l 24,33 c 4,5 3,11 -2,15 -129,95 -257,173 -383,235 -126,62 -251,107 -374,136 -122,28 -242,40 -360,36 -117,-5 -232,-25 -345,-61 -74,50 -149,87 -226,113 -78,27 -157,42 -237,49 -81,7 -163,6 -244,-1 -81,-7 -163,-20 -244,-36 -5,-1 -9,-7 -8,-12 l 7,-40 c 2,-6 7,-10 13,-8 z"
     class="fil28" /><ellipse
     style="fill:#1a1a1a"
     sodipodi:ry="230"
     sodipodi:rx="201"
     sodipodi:cy="3990"
     sodipodi:cx="4656"
     id="ellipse91"
     ry="230"
     class="fil29"
     rx="201"
     cx="4656"
     cy="3990"
     transform="translate(-521,-1044)" /><ellipse
     style="fill:#1a1a1a"
     sodipodi:ry="610"
     sodipodi:rx="532"
     sodipodi:cy="0"
     sodipodi:cx="0"
     cy="0"
     cx="0"
     id="ellipse93"
     class="fil29"
     ry="610"
     rx="532"
     transform="matrix(0.37588,-0.029204,0.029204,0.37588,5100.4,2736.4)" /><ellipse
     style="fill:#7a7b9c"
     sodipodi:ry="108"
     sodipodi:rx="109"
     sodipodi:cy="3903"
     sodipodi:cx="4598"
     id="ellipse95"
     ry="108"
     class="fil30"
     rx="109"
     cx="4598"
     cy="3903"
     transform="translate(-521,-1044)" /><path
     style="fill:#473d3d;fill-rule:nonzero"
     inkscape:connector-curvature="0"
     id="path97"
     d="m 4427,3588 c -8,-17 0,-37 17,-45 17,-7 37,1 44,18 41,92 82,165 124,216 34,41 67,68 99,82 42,-41 81,-89 117,-143 40,-62 76,-131 108,-209 7,-17 27,-25 44,-18 17,7 25,26 18,43 -34,83 -72,156 -114,221 -42,64 -89,120 -140,167 -8,9 -21,13 -33,10 -52,-14 -102,-51 -151,-111 -45,-56 -90,-133 -133,-231 z"
     class="fil31" /><ellipse
     style="fill:#7a7b9c"
     sodipodi:ry="108"
     sodipodi:rx="109"
     sodipodi:cy="3705"
     sodipodi:cx="5564"
     id="ellipse99"
     ry="108"
     class="fil30"
     rx="109"
     cx="5564"
     cy="3705"
     transform="translate(-521,-1044)" /><path
     style="fill:#cf9278;fill-rule:nonzero"
     inkscape:connector-curvature="0"
     id="path101"
     d="m 4702,3985 c 0,-9 8,-16 17,-16 10,0 17,8 17,17 -3,87 -5,182 2,290 8,107 24,227 58,365 2,9 -3,18 -12,20 -9,2 -18,-3 -20,-12 -35,-140 -51,-262 -59,-371 -7,-109 -6,-205 -3,-293 z"
     class="fil28" /><path
     style="fill:#824023;fill-rule:nonzero"
     inkscape:connector-curvature="0"
     id="path103"
     d="m 4477,1098 c -30,95 -38,206 -26,331 12,129 46,273 102,430 2,7 -2,14 -9,17 -7,2 -14,-2 -17,-9 -56,-158 -90,-304 -103,-435 -12,-123 -4,-232 23,-327 10,-2 20,-5 30,-7 z"
     class="fil32" /><path
     style="fill:#d9d973"
     inkscape:connector-curvature="0"
     id="path105"
     d="m 6741,5213 c 20,73 8,124 -43,200 -34,-37 -19,-104 43,-200 z"
     class="fil33" /><g
     id="_613659216"
     transform="translate(-521,-1044)"><path
       style="fill:#d1d171"
       inkscape:connector-curvature="0"
       id="path108"
       d="m 3107,8015 c 0,-1 0,-2 -1,-3 -3,-3 -6,-7 -9,-11 -3,-3 -6,-7 -9,-10 -3,-4 -6,-7 -9,-11 -3,-3 -6,-7 -9,-10 -3,-3 -6,-7 -8,-10 -3,-4 -6,-7 -9,-10 -3,-3 -6,-7 -9,-10 -2,-3 -5,-6 -8,-10 -3,-3 -6,-6 -8,-9 l -9,-9 c -2,-4 -5,-7 -8,-10 -3,-3 -5,-6 -8,-9 -3,-3 -5,-6 -8,-9 -3,-2 -5,-5 -8,-8 -3,-3 -5,-6 -8,-9 -2,-3 -5,-5 -8,-8 -2,-3 -5,-6 -7,-9 -3,-2 -6,-5 -8,-8 -3,-2 -5,-5 -8,-8 -2,-2 -5,-5 -7,-8 -3,-2 -5,-5 -8,-7 -2,-3 -4,-5 -7,-8 l -7,-7 c -3,-3 -5,-5 -7,-8 -3,-2 -5,-4 -8,-7 -2,-2 -4,-5 -7,-7 -2,-2 -4,-5 -7,-7 -2,-2 -4,-5 -7,-7 l -7,-7 c -2,-2 -4,-4 -7,-6 -2,-2 -4,-5 -6,-7 -3,-2 -5,-4 -7,-6 -2,-2 -5,-4 -7,-6 -2,-3 -4,-5 -7,-7 l -6,-6 c -2,-2 -5,-4 -7,-6 l -6,-6 c -2,-2 -5,-4 -7,-6 -2,-1 -4,-3 -6,-5 -2,-2 -5,-4 -7,-6 -2,-2 -4,-4 -6,-5 l -6,-6 c -2,-2 -5,-4 -7,-5 l -6,-6 c -2,-1 -4,-3 -6,-5 -2,-2 -4,-3 -6,-5 -2,-2 -5,-3 -7,-5 -2,-2 -4,-4 -6,-5 -2,-2 -4,-3 -6,-5 -2,-2 -4,-3 -6,-5 -2,-2 -4,-3 -6,-5 -2,-1 -4,-3 -6,-5 -2,-1 -4,-3 -6,-4 -2,-2 -4,-3 -6,-5 -2,-2 -4,-3 -6,-5 -2,-1 -4,-3 -6,-4 -2,-2 -4,-3 -6,-5 -2,-1 -4,-3 -6,-4 -2,-2 -4,-3 -6,-5 -2,-1 -4,-3 -6,-4 -2,-1 -4,-3 -6,-4 l -6,-5 -6,-4 -6,-4 c -72,-62 -136,-31 -241,24 l 2,-8 1,-8 2,-8 1,-8 2,-8 1,-8 2,-7 1,-8 2,-7 1,-8 2,-7 1,-7 2,-8 1,-7 c 1,-2 1,-4 2,-7 l 2,-7 1,-7 c 1,-2 1,-4 2,-6 l 1,-7 c 1,-2 1,-5 2,-7 0,-2 1,-4 2,-6 v -1 c 0,-2 1,-4 1,-6 1,-2 1,-4 2,-6 0,-3 1,-5 1,-7 1,-2 2,-4 2,-6 1,-2 1,-4 2,-6 0,-2 1,-5 1,-7 1,-2 2,-4 2,-6 1,-2 1,-4 2,-6 0,-2 1,-4 2,-6 0,-1 1,-3 1,-5 1,-2 1,-4 2,-6 1,-2 1,-4 2,-6 0,-2 1,-4 2,-5 0,-2 1,-4 1,-6 1,-2 2,-4 2,-5 1,-2 1,-4 2,-6 1,-1 1,-3 2,-5 1,-2 1,-3 2,-5 0,-2 1,-4 2,-5 0,-2 1,-4 2,-5 0,-2 1,-4 2,-5 0,-2 1,-4 2,-5 0,-2 1,-3 2,-5 0,-2 1,-3 2,-5 0,-1 1,-3 2,-4 0,-2 1,-3 2,-5 0,-1 1,-3 2,-4 0,-2 1,-3 2,-5 0,-1 1,-2 2,-4 1,-1 1,-3 2,-4 1,-1 1,-3 2,-4 1,-2 2,-3 2,-4 1,-1 2,-3 3,-4 0,-1 1,-3 2,-4 1,-1 1,-2 2,-4 1,-1 2,-2 2,-3 1,-2 2,-3 3,-4 1,-1 1,-2 2,-3 1,-2 2,-3 2,-4 l 3,-3 c 1,-1 1,-2 2,-3 1,-1 2,-3 3,-4 1,-1 1,-2 2,-3 3,-3 7,-7 10,-11 3,-4 6,-8 10,-11 3,-4 6,-8 9,-12 3,-3 7,-7 10,-11 3,-4 6,-7 9,-11 4,-4 7,-7 10,-11 3,-4 6,-7 10,-11 3,-3 6,-7 9,-11 4,-3 7,-7 10,-10 3,-4 6,-7 10,-11 3,-3 6,-7 9,-10 3,-4 7,-7 10,-10 3,-4 6,-7 10,-11 3,-3 6,-6 9,-10 3,-3 7,-6 10,-10 3,-3 6,-6 10,-9 3,-4 6,-7 9,-10 4,-3 7,-7 10,-10 3,-3 7,-6 10,-9 3,-3 6,-7 9,-10 4,-3 7,-6 10,-9 4,-3 7,-6 10,-9 3,-3 7,-6 10,-9 3,-3 6,-6 10,-9 l 9,-9 c 4,-2 7,-5 10,-8 4,-3 7,-6 10,-9 3,-2 7,-5 10,-8 3,-3 7,-6 10,-8 3,-3 7,-6 10,-8 3,-3 6,-6 10,-8 3,-3 6,-6 10,-8 3,-3 6,-5 10,-8 3,-2 6,-5 10,-7 3,-3 7,-5 10,-8 3,-2 7,-5 10,-7 3,-2 7,-5 10,-7 3,-3 7,-5 10,-7 4,-2 7,-5 10,-7 4,-2 7,-5 11,-7 3,-2 6,-4 10,-6 3,-2 7,-5 10,-7 3,-2 7,-4 10,-6 4,-2 7,-4 11,-6 3,-2 7,-4 10,-6 4,-2 7,-4 10,-6 4,-2 7,-4 11,-6 3,-1 7,-3 10,-5 4,-2 7,-4 11,-5 3,-2 7,-4 10,-6 4,-1 7,-3 11,-5 4,-1 7,-3 11,-5 3,-1 7,-3 10,-4 4,-2 7,-3 11,-5 4,-1 7,-3 11,-4 3,-2 7,-3 11,-5 3,-1 7,-2 10,-4 4,-1 8,-2 11,-4 4,-1 8,-2 11,-4 4,-1 8,-2 11,-3 4,-1 8,-2 11,-4 4,-1 8,-2 11,-3 l 12,-3 c 3,-1 7,-2 11,-3 -98,402 -123,821 -75,1258 l -1,1 z"
       class="fil34" /><path
       style="fill:#c9c963"
       inkscape:connector-curvature="0"
       id="path110"
       d="m 2602,7162 c 3,-3 6,-7 9,-10 1,-2 3,-4 5,-6 l 4,-4 c 1,-2 3,-4 5,-5 l 4,-5 5,-5 4,-5 5,-5 4,-4 5,-5 4,-5 5,-5 4,-5 c 2,-1 4,-3 5,-5 2,-1 3,-3 5,-4 1,-2 3,-3 4,-5 l 9,-9 4,-4 c 2,-2 4,-3 5,-5 l 5,-5 4,-4 5,-5 5,-4 4,-5 5,-4 c 1,-2 3,-3 4,-4 l 5,-5 5,-4 c 1,-2 3,-3 4,-5 2,-1 3,-2 5,-4 2,-1 3,-3 5,-5 1,-1 3,-2 4,-3 3,-3 6,-6 9,-8 l 4,-4 c 2,-2 4,-3 5,-5 2,-1 3,-2 5,-4 2,-1 3,-2 5,-4 1,-1 3,-2 4,-4 2,-1 4,-3 5,-4 l 5,-4 4,-4 5,-4 c 2,-1 3,-2 5,-4 1,-1 3,-2 5,-4 1,-1 3,-2 5,-4 1,-1 2,-2 4,-3 2,-2 4,-4 6,-5 l 3,-3 c 3,-2 6,-4 10,-7 l 2,-2 c 2,-2 5,-3 7,-5 1,-1 3,-2 4,-3 2,-1 4,-3 5,-4 2,-1 3,-2 5,-4 2,-1 3,-2 5,-3 1,-1 3,-2 4,-4 l 6,-3 4,-3 c 2,-2 3,-3 5,-4 2,-1 3,-2 5,-3 1,-1 3,-3 5,-4 1,-1 3,-2 4,-3 2,-1 5,-3 7,-4 l 3,-2 c 3,-2 6,-4 9,-7 1,0 2,-1 3,-1 2,-2 5,-3 7,-5 1,-1 2,-1 4,-2 2,-1 4,-3 6,-4 1,-1 2,-2 4,-2 2,-2 4,-3 6,-4 l 4,-2 c 2,-2 3,-3 5,-4 2,-1 3,-1 5,-2 2,-1 4,-2 5,-4 2,0 3,-1 5,-2 1,-1 3,-2 5,-3 2,-1 3,-2 4,-2 3,-2 5,-3 7,-4 1,-1 2,-1 3,-2 4,-2 7,-3 10,-5 l 2,-1 c 3,-1 5,-3 8,-4 1,-1 3,-1 4,-2 l 6,-3 c 2,-1 3,-1 4,-2 l 6,-3 c 2,-1 3,-1 4,-2 2,-1 4,-2 7,-3 l 4,-2 c 2,0 4,-1 6,-2 1,-1 3,-1 4,-2 l 6,-3 c 1,0 3,-1 4,-1 2,-1 5,-2 7,-3 1,-1 2,-1 3,-2 4,-1 7,-2 11,-4 3,-1 7,-2 10,-4 1,0 2,0 4,-1 2,-1 4,-2 6,-2 2,-1 3,-1 4,-2 3,-1 5,-1 7,-2 1,0 2,-1 4,-1 2,-1 4,-2 6,-2 l 5,-2 c 2,0 4,-1 6,-2 1,0 3,-1 4,-1 2,-1 4,-1 6,-2 2,0 3,-1 5,-1 2,-1 4,-1 6,-2 2,0 3,-1 4,-1 4,-1 7,-2 11,-3 -59,241 -91,487 -98,741 -165,-83 -326,-194 -483,-335 z m 482,-374 c 4,-1 7,-2 11,-4"
       class="fil5" /><path
       style="fill:#b0b04a"
       inkscape:connector-curvature="0"
       id="path112"
       d="m 2863,7748 c -78,-75 -147,-130 -206,-169 -72,-62 -136,-31 -241,24 3,-17 6,-33 9,-49 l 1,-1 c 345,-221 686,454 682,461 0,0 -1,0 -2,-2 -95,-113 -173,-197 -243,-264 z"
       class="fil35" /></g><path
     style="fill:#d1d171;fill-rule:nonzero"
     inkscape:connector-curvature="0"
     id="path114"
     d="m 6058,6133 c -227,365 276,534 2,880 -170,188 -386,310 -551,466 263,-315 417,-435 366,-460 -166,-233 -340,-677 183,-886 z"
     class="fil36" /><g
     id="_130826528"
     transform="translate(-521,-1044)"><ellipse
       style="fill:#9e4826"
       sodipodi:ry="510"
       sodipodi:rx="848"
       sodipodi:cy="0"
       sodipodi:cx="0"
       cy="0"
       cx="0"
       id="ellipse117"
       class="fil37"
       ry="510"
       rx="848"
       transform="matrix(0.08907,0.024469,-0.048782,0.17757,4817,8865.1)"
       d="M 848,0 C 848,281.66522 468.33747,510 0,510 -468.33747,510 -848,281.66522 -848,0 c 0,-281.66522 379.66253,-510 848,-510 468.33747,0 848,228.33478 848,510 z" /><ellipse
       style="fill:#8a3e20"
       sodipodi:ry="510"
       sodipodi:rx="848"
       sodipodi:cy="0"
       sodipodi:cx="0"
       cy="0"
       cx="0"
       id="ellipse119"
       class="fil38"
       ry="510"
       rx="848"
       transform="matrix(0.075033,0.020613,-0.044567,0.16223,4820.6,8864.4)"
       d="M 848,0 C 848,281.66522 468.33747,510 0,510 -468.33747,510 -848,281.66522 -848,0 c 0,-281.66522 379.66253,-510 848,-510 468.33747,0 848,228.33478 848,510 z" /><ellipse
       style="fill:#6b3722"
       sodipodi:ry="510"
       sodipodi:rx="848"
       sodipodi:cy="0"
       sodipodi:cx="0"
       cy="0"
       cx="0"
       id="ellipse121"
       class="fil39"
       ry="510"
       rx="848"
       transform="matrix(0.063062,0.017324,-0.037457,0.13635,4814.3,8858.9)"
       d="M 848,0 C 848,281.66522 468.33747,510 0,510 -468.33747,510 -848,281.66522 -848,0 c 0,-281.66522 379.66253,-510 848,-510 468.33747,0 848,228.33478 848,510 z" /><ellipse
       style="fill:#5e3220"
       sodipodi:ry="99"
       sodipodi:rx="48"
       sodipodi:cy="0"
       sodipodi:cx="0"
       cy="0"
       cx="0"
       id="ellipse123"
       class="fil40"
       ry="99"
       rx="48"
       transform="matrix(0.67919,0.18658,-0.11098,0.40399,4821.5,8856.1)"
       d="M 48,0 C 48,54.67619 26.509668,99 0,99 -26.509668,99 -48,54.67619 -48,0 c 0,-54.67619 21.490332,-99 48,-99 26.509668,0 48,44.32381 48,99 z" /></g><path
     style="fill:#eba78a"
     inkscape:connector-curvature="0"
     id="path125"
     d="m 8456,8160 c 20,-43 35,-86 47,-129 v -352 c -72,-238 -295,-442 -629,-622 -1088,-386 -1104,512 -620,1103 h 1202 z"
     class="fil9" /><path
     style="fill:#eba78a"
     inkscape:connector-curvature="0"
     id="path127"
     d="m 7857,8583 c 289,89 489,-193 590,-403 223,-467 -25,-828 -573,-1123 -1438,-510 -1004,1222 -17,1526 z"
     class="fil9" /><path
     style="fill:#eba78a"
     inkscape:connector-curvature="0"
     id="path129"
     d="M 1146,8192 C 2199,8008 2240,6666 1109,6864 -23,7062 94,8376 1146,8192 z"
     class="fil9" /><path
     style="fill:#4f2010"
     inkscape:connector-curvature="0"
     id="path136"
     d="m 3031,3329 c 5,2 5,7 5,12 0,1 0,1 -1,3 -1,1 -1,1 -3,1 -2,0 -5,-2 -6,-2 -1,-1 -2,-1 -3,-2 l -2,-2 c -2,-2 -4,-2 -1,-5 2,-1 7,-6 11,-5 z m -14,-31 c 0,-2 4,-5 6,-5 0,2 -4,5 -6,5 z m 6,-206 -2,-1 3,-1 c 0,1 -1,2 -1,2 z m -10,3 c -1,0 -4,-1 -5,-2 2,0 4,0 5,2 z m -9,43 c 2,0 4,1 5,1 2,0 13,5 9,9 -3,3 -13,-7 -14,-10 z m 2,-71 c -1,-2 0,-2 0,-3 0,-2 0,-2 1,-3 1,0 6,1 7,1 -1,1 -7,5 -8,5 z m 8,264 c -4,-4 -8,-20 -9,-26 v -7 c 0,-7 1,-18 9,-20 2,-1 4,-1 6,0 2,1 5,1 6,2 3,6 -10,6 -15,14 -1,3 -5,7 -1,10 3,2 8,2 12,0 5,-2 7,-7 9,-12 1,-2 1,-3 3,-5 1,-1 2,-2 4,-3 2,-1 3,-1 2,-5 0,-1 -2,-2 -3,-3 -3,-1 -4,-1 -4,-4 v -6 c -1,-4 -1,-3 -2,-6 -2,-5 -3,-4 -7,-8 3,-2 12,-1 10,-7 0,-3 -4,-3 -6,-2 -4,0 -13,-1 -16,-3 l -6,-3 c -3,-3 -6,-10 -1,-13 2,0 4,2 7,3 1,1 6,3 7,3 5,1 11,1 14,-5 3,-6 3,-9 2,-16 -1,-4 -3,-6 -6,-9 -1,-1 -3,-1 -3,-2 2,-2 16,-3 13,-9 0,0 -2,-2 -3,-2 -3,-1 -4,0 -6,1 -1,0 -9,1 -12,1 h -4 c -3,0 -8,-1 -11,-2 -5,-1 -4,-11 3,-13 2,-1 2,0 4,1 2,1 2,1 3,2 1,1 0,0 4,2 4,3 7,6 12,5 0,0 3,-1 3,-2 8,-6 3,-22 0,-30 0,-1 -4,-6 -3,-7 2,-1 5,0 8,-2 2,-1 4,-2 6,-4 4,-4 3,-12 2,-17 0,-3 -2,-9 -4,-11 -1,-1 -1,-2 -2,-4 -1,-2 -10,-10 -10,-11 1,-1 3,-2 4,-3 1,-2 2,-3 2,-5 1,-2 0,-4 -2,-5 -3,-3 -13,1 -17,2 -2,0 -4,1 -6,0 -1,0 -5,0 -6,-1 v -7 c 0,-3 2,-3 5,-4 3,-1 7,-4 10,-6 3,-2 7,-5 10,-6 1,0 4,-3 5,-3 2,-2 3,-3 1,-6 -1,-1 -3,-2 -5,-2 -4,2 -5,6 -12,5 h -4 c -1,0 -2,-1 -3,-1 -4,-1 -10,-3 -13,1 -1,2 0,5 0,7 0,3 0,6 -1,8 -2,1 -5,1 -7,0 -2,-1 -3,-2 -5,-4 -1,-1 -4,-10 -4,-12 -3,-12 -3,-16 -4,-29 -1,-7 -1,-25 0,-32 0,-3 2,-2 3,-5 0,-3 -2,-5 -1,-7 1,-3 1,-5 -2,-7 -1,-1 -4,-1 -6,0 -3,2 -2,4 -1,7 l -1,36 c 0,1 1,2 0,4 0,4 1,11 1,15 1,8 2,21 6,28 1,1 1,2 1,3 2,2 3,5 6,7 6,4 12,3 13,3 1,2 0,6 0,7 -1,2 -3,4 -2,5 0,1 3,3 4,4 1,1 2,2 3,4 2,3 7,4 10,4 h 7 c 3,0 4,-2 6,0 6,5 10,10 13,17 1,3 2,10 1,12 -1,3 1,3 -2,5 -2,2 -4,3 -6,2 -1,-1 -2,-7 -2,-8 -1,-2 0,-4 -1,-5 0,-1 -2,-2 -3,-2 -3,-1 -6,2 -5,5 0,2 1,9 1,10 -1,0 -7,-3 -8,-4 -2,-1 -12,-4 -14,-4 -4,1 -5,4 -4,8 1,0 2,3 3,3 4,6 4,8 11,13 3,2 5,3 9,3 4,1 6,-2 8,-3 0,1 2,4 2,5 1,2 1,4 1,6 1,2 1,10 0,12 -7,2 -15,-16 -29,-6 -4,3 -8,9 -7,14 0,2 1,6 2,8 2,1 8,1 8,2 0,2 -4,2 -2,6 2,5 14,-2 23,4 3,2 6,8 5,13 -1,6 -4,9 -10,5 -3,-2 -10,-6 -14,-5 -2,0 -4,2 -6,3 -2,1 -2,4 -3,6 -3,8 3,14 9,18 1,0 6,2 6,3 -1,1 -8,3 -6,6 1,5 7,3 10,3 4,1 7,2 10,5 1,2 3,9 1,11 -2,0 -10,-2 -15,0 -4,2 -7,5 -9,9 -6,11 -4,33 2,44 l 3,6 c 2,5 6,5 -1,11 -2,1 -8,17 -10,17 0,0 -4,-6 -5,-7 -1,-2 -3,-5 -5,-7 -4,-4 -8,-8 -12,-11 -10,-7 -25,-13 -35,-2 -8,9 -8,27 -5,39 10,44 58,47 94,34 4,-1 14,-5 16,-8 3,-2 3,-6 -1,-5 -2,1 -3,3 -8,5 -22,10 -54,15 -76,2 -10,-7 -17,-18 -19,-29 -1,-10 -3,-31 7,-37 10,-5 26,7 32,14 3,4 7,9 9,14 2,2 3,6 5,7 3,2 6,2 8,-1 l 6,-12 c 1,-3 5,-9 7,-12 1,-2 1,-1 3,1 4,3 6,4 11,7 3,1 7,1 10,0 2,-1 5,-5 6,-6 1,-2 0,-9 0,-11 -1,-6 -6,-11 -13,-11 -8,0 -13,7 -16,8 z"
     class="fil42" /><path
     style="fill:#e6a183;fill-rule:nonzero"
     inkscape:connector-curvature="0"
     id="path138"
     d="m 1622,7080 c 9,-2 18,4 19,13 2,9 -4,18 -13,20 -303,62 -538,149 -706,260 -166,111 -265,244 -297,402 -2,9 -11,15 -20,13 -9,-1 -15,-10 -13,-19 34,-167 138,-308 311,-423 172,-114 411,-203 719,-266 z"
     class="fil43" /><path
     style="fill:#e6a183;fill-rule:nonzero"
     inkscape:connector-curvature="0"
     id="path140"
     d="m 7331,7108 c -1,-9 6,-17 15,-18 9,-1 17,6 18,15 30,359 306,689 827,990 8,5 11,15 6,23 -4,8 -14,11 -22,6 -532,-306 -813,-645 -844,-1016 z"
     class="fil43" /><metadata
     id="metadata142"><rdf:RDF><cc:Work><dc:format>image/svg+xml</dc:format><dc:type
           rdf:resource="http://purl.org/dc/dcmitype/StillImage" /><cc:license
           rdf:resource="http://creativecommons.org/licenses/publicdomain/" /><dc:publisher><cc:Agent
             rdf:about="http://openclipart.org/"><dc:title>Openclipart</dc:title></cc:Agent></dc:publisher><dc:title></dc:title><dc:date>2013-08-25T17:03:03</dc:date><dc:description>A stuffed teddy monkey bear.</dc:description><dc:source>http://openclipart.org/detail/182194/stuffed-teddy-bear-by-barrettward-182194</dc:source><dc:creator><cc:Agent><dc:title>barrettward</dc:title></cc:Agent></dc:creator><dc:subject><rdf:Bag><rdf:li>bear</rdf:li><rdf:li>belly</rdf:li><rdf:li>monkey</rdf:li><rdf:li>plush</rdf:li><rdf:li>stuffed</rdf:li><rdf:li>teddy</rdf:li><rdf:li>toy</rdf:li></rdf:Bag></dc:subject></cc:Work><cc:License
         rdf:about="http://creativecommons.org/licenses/publicdomain/"><cc:permits
           rdf:resource="http://creativecommons.org/ns#Reproduction" /><cc:permits
           rdf:resource="http://creativecommons.org/ns#Distribution" /><cc:permits
           rdf:resource="http://creativecommons.org/ns#DerivativeWorks" /></cc:License></rdf:RDF></metadata></svg>